<svg version="1.1" xmlns="http://www.w3.org/2000/svg" viewBox="-2216.6571368178516 -6402.420806083677 10469.794440516773 10470.042760761546"><desc>Created with Snap</desc><defs></defs><g><g transform="matrix(24.8078,0,0,24.8078,-1943.3195,-6128.959)">
<g id="gSl4ve5qnqqw">
	<g>
		<path d="M361.85498,132.95007l-21.40002-73.41016l-73.41003-21.3999l-66.54004-36.5l-0.5-0.28003l-67.04993,36.78003
			l-73.41003,21.3999l-21.3999,73.41016L1.63501,199.49011l-0.27002,0.51001l36.78003,67.03979l21.3999,73.42017l73.41003,21.3999
			l66.53992,36.5l0.51001,0.28003l67.04004-36.78003l73.41003-21.3999l21.40002-73.42017l36.51001-66.53979l0.27002-0.5
			L361.85498,132.95007z M367.20496,147.07019l17.91003,32.65991l-4.81006,16.51001l-13.71997-47.05005L367.20496,147.07019z
			 M43.21484,217.17004l-8.70996,29.88013l-13.70996-47.05005l13.70996-47.05005l8.70996,29.87988l-9.13989,16.66016
			l-0.28003,0.51001L43.21484,217.17004z M36.19495,200.00012l7.85999-14.31006l4.16992,14.31006l-4.17993,14.30981
			L36.19495,200.00012z M309.20496,96.10999l12.0199,6.59009l9.53003,32.67993L309.20496,96.10999z M307.32495,92.67004
			l-7.17004-13.06006l15.67004,4.56006l4.57007,15.67017L307.32495,92.67004z M317.5249,82.4801l-18.80005-5.47998
			l-14.96997-27.29004l42.95996,23.57007l23.58008,42.96997l-27.29004-14.97998L317.5249,82.4801z M303.88501,90.78992
			L264.625,69.25012l32.66992,9.52002L303.88501,90.78992z M203.76489,49.30994l13.16003-3.82983l29.83997,16.36987
			L203.76489,49.30994z M200.00488,48.22009l-14.31995-4.16992l14.31995-7.8501l14.31006,7.8501L200.00488,48.22009z
			 M200.50488,34.07019l-0.5-0.27002l-17.16992,9.40991l-29.89001-8.70996l47.05994-13.71021l47.05005,13.71021l-29.89001,8.70996
			L200.50488,34.07019z M183.07495,45.4801l13.15991,3.82983l-43,12.54004L183.07495,45.4801z M96.11499,90.78992l6.58997-12.01978
			l32.67004-9.52002L96.11499,90.78992z M92.67493,92.67004l-13.06995,7.17017l4.56995-15.67017l15.67004-4.56006L92.67493,92.67004
			z M101.2749,77.00012L82.47485,82.4801l-5.47998,18.79004l-27.28992,14.97998l23.57996-42.96997l42.95996-23.57007
			L101.2749,77.00012z M78.7749,102.70007l12.02002-6.59009L69.25488,135.37L78.7749,102.70007z M45.48486,183.07996
			l16.37012-29.83984l-12.54004,43L45.48486,183.07996z M49.31494,203.76013l12.54004,43l-16.37012-29.84009L49.31494,203.76013z
			 M90.79492,303.89001l-12.02002-6.6001L69.24487,264.62L90.79492,303.89001z M92.67493,307.32019l7.55994,13.77979
			l-15.84985-4.56006l-4.78003-16.38989L92.67493,307.32019z M82.5249,317.68005l0.16003,0.56006l18.96997,5.45996
			l14.58997,26.58984l-42.95996-23.56982l-23.57996-42.96997l27.28992,14.96997L82.5249,317.68005z M96.11499,309.21008
			l41.02002,22.5l-34.05005-9.79004L96.11499,309.21008z M195.85498,350.78992l-12.78003,3.73022l-28.34009-15.56006
			L195.85498,350.78992z M199.63501,351.88l14.48999,4.17017l-14.12012,7.75l-14.31995-7.8501L199.63501,351.88z
			 M199.49487,365.92004l0.51001,0.28003l16.98999-9.32007l30,8.63013l-46.98999,13.69995l-47.05994-13.71997l29.89001-8.70996
			L199.49487,365.92004z M216.74487,354.60999l-13.32996-3.82983l43.34998-12.63013L216.74487,354.60999z M303.88501,309.21008
			l-6.59009,12.01001l-32.66992,9.53003L303.88501,309.21008z M307.32495,307.32019l13.07007-7.17017l-4.57007,15.67017
			l-15.67004,4.56982L307.32495,307.32019z M298.72485,323.00012l18.80005-5.47998l5.47998-18.80005l27.29004-14.96997
			l-23.58008,42.96997l-42.95996,23.56982L298.72485,323.00012z M321.22485,297.28992l-12.0199,6.6001L330.74487,264.62
			L321.22485,297.28992z M338.14502,153.24011l16.36987,29.83984l-3.82996,13.16016L338.14502,153.24011z M350.68494,203.76013
			l3.82996,13.15991l-16.36987,29.84009L350.68494,203.76013z M351.7749,200.00012l4.17004-14.31006l7.85999,14.31006
			l-7.85999,14.30981L351.7749,200.00012z M365.92493,200.50012l0.28003-0.5l-9.42004-17.17017l8.70996-29.87988l13.71008,47.05005
			l-13.71008,47.05005l-8.70996-29.88013L365.92493,200.50012z M365.7749,144.47009l-0.28003,0.94995l-0.91992-3.13013
			L365.7749,144.47009z M364.39502,149.19006l-9.04004,31.03003l-19.93005-36.32007L323.83496,104.13l28.33997,15.55005
			l7.72998,14.08008L364.39502,149.19006z M357.18494,124.43005l-1.56995-2.87012l0.86987,0.49023L357.18494,124.43005z
			 M355.65491,119.19006l-1.93005-1.06006l-23.56995-42.96997l15.07996,8.28003L355.65491,119.19006z M338.76489,61.24011
			l5.63013,19.33984l-16.13013-8.84985l-8.83997-16.13013L338.76489,61.24011z M316.56494,54.76013l8.27002,15.08008
			l-42.96997-23.57007l-1.05005-1.92993L316.56494,54.76013z M277.95496,43.51013l0.47998,0.87988l-2.87-1.56982L277.95496,43.51013
			z M280.31494,47.82019l15.55005,28.33984l-39.77002-11.58984L219.7749,44.65002l31.04004-9.05005l15.41992,4.49023
			L280.31494,47.82019z M255.53491,34.22009l2.17004,1.19995l-3.13-0.91992L255.53491,34.22009z M200.00488,3.76013
			l52.92004,29.02979l-2.10999,0.62012l-68.47998-19.95996L200.00488,3.76013z M179.72485,14.88l16.52002,4.81006
			l-53.94995,15.72998L179.72485,14.88z M122.04492,43.51013l2.39001-0.68994l-2.87,1.56982L122.04492,43.51013z
			 M133.76489,40.09021l15.42004-4.49023l31.03992,9.05005l-36.31995,19.92017l-39.7699,11.58984l15.54993-28.33984
			L133.76489,40.09021z M119.19495,44.34021l-1.05994,1.92993L75.16492,69.84021l8.27002-15.07007L119.19495,44.34021z
			 M61.23486,61.24011l19.34009-5.64014L71.73486,71.7301l-16.12988,8.84985L61.23486,61.24011z M54.76489,83.43005
			l15.08008-8.27002L46.2749,118.13l-1.92993,1.06006L54.76489,83.43005z M43.51489,122.05017l0.87012-0.47998l-1.57007,2.85986
			L43.51489,122.05017z M40.09497,133.76013l7.72998-14.08008L76.16492,104.13l-11.58997,39.77002l-19.92993,36.32007
			l-9.04004-31.03003L40.09497,133.76013z M35.42493,142.28992l-0.92004,3.14014l-0.28003-0.95996L35.42493,142.28992z
			 M32.79492,147.07996l0.62,2.11011l-13.71997,47.05005l-4.80994-16.51001L32.79492,147.07996z M3.76489,200.00012
			l9.69006-17.65991l5.14001,17.65991l-5.14001,17.65991L3.76489,200.00012z M32.79492,252.92004l-17.90991-32.6499
			l4.80994-16.51001l13.71997,47.0498L32.79492,252.92004z M34.22485,255.53015l0.28003-0.95996l0.92004,3.13989L34.22485,255.53015
			z M35.60498,250.80994l9.04004-31.02979l19.92993,36.31006l11.58997,39.76978l-28.33997-15.55005l-7.72998-14.07983
			L35.60498,250.80994z M42.81494,275.57019l1.57007,2.85986l-0.87012-0.47998L42.81494,275.57019z M44.34497,280.80994
			l1.92993,1.05005l23.57007,42.96997l-15.08008-8.27002L44.34497,280.80994z M61.23486,338.76013l-5.62988-19.34009
			l16.12988,8.8501l8.84009,16.12988L61.23486,338.76013z M83.43494,345.2301l-8.27002-15.08008l42.97009,23.57007l1.05994,1.92993
			L83.43494,345.2301z M122.04492,356.4801l-0.47998-0.87012l2.87,1.57007L122.04492,356.4801z M119.68494,352.17004
			l-15.17004-27.6499l41.02002,11.80005l34.68994,19.02979l-31.03992,9.04004l-15.42004-4.48999L119.68494,352.17004z
			 M144.46484,365.77014l-2.16992-1.19019l3.13,0.91016L144.46484,365.77014z M147.07495,367.20007l2.10999-0.60986
			l47.05994,13.70996l-16.52002,4.80981L147.07495,367.20007z M200.00488,396.24011l-17.66992-9.68994l17.66992-5.15015
			l17.66003,5.15015L200.00488,396.24011z M220.2749,385.10999l-16.51001-4.80981l47.02002-13.7002l2.13,0.61011L220.2749,385.10999
			z M255.5249,365.77014l-0.95996-0.28003l3.14001-0.91016L255.5249,365.77014z M277.95496,356.4801l-2.39001,0.69995l2.87-1.57007
			L277.95496,356.4801z M266.23486,359.90002l-15.45996,4.51001l-31.15991-8.96997l36.47998-20.02002l39.77002-11.59009
			l-15.55005,28.34009L266.23486,359.90002z M280.81494,355.65002l1.05005-1.92993l42.96997-23.57007l-8.27002,15.08008
			L280.81494,355.65002z M338.76489,338.76013l-19.33997,5.63989l8.83997-16.12988l16.13013-8.8501L338.76489,338.76013z
			 M345.23486,316.55994l-15.07996,8.27002l23.56995-42.96997l1.93005-1.05005L345.23486,316.55994z M356.48486,277.95007
			l-0.86987,0.47998l1.56995-2.85986L356.48486,277.95007z M359.90491,266.2301l-7.72998,14.07983l-28.33997,15.55005
			l11.58997-39.76978l19.93005-36.31006l9.04004,31.02979L359.90491,266.2301z M364.57495,257.71008l0.91992-3.13989
			l0.28003,0.95996L364.57495,257.71008z M367.20496,252.92004l-0.62-2.11011l13.71997-47.0498l4.81006,16.51001
			L367.20496,252.92004z M386.54492,217.66003l-5.14001-17.65991l5.14001-17.67017l9.68994,17.67017L386.54492,217.66003z" fill="#225662" style=""></path>
	</g>
</g>


<desc>Created with Snap</desc><defs></defs></g><g><g transform="matrix(1.024,0,0,-1.024,0,0)"><path d="M152 479L152 -46Q152 -94 129 -128Q107 -161 74 -179Q41 -197 8 -197Q-5 -197 -13 -189Q-20 -181 -20 -170L-20 -166Q-20 -154 -12 -147Q-4 -140 6 -138Q29 -133 48 -121Q68 -109 80 -88Q92 -67 92 -37L92 479Q92 491 100 500Q109 509 122 509Q135 509 143 500Q152 491 152 479ZM122 588Q101 588 90 597Q80 607 80 625L80 635Q80 653 91 662Q103 672 123 672Q142 672 152 662Q163 653 163 635L163 625Q163 607 152 597Q142 588 122 588ZM730 520Q743 520 751 511Q760 502 760 490L760 49Q760 -32 728 -88Q696 -143 642 -172Q588 -200 519 -200Q476 -200 439 -191Q403 -181 380 -166Q368 -159 362 -149Q356 -139 361 -128Q366 -114 376 -110Q387 -105 398 -110Q415 -119 447 -132Q479 -145 520 -145Q575 -145 615 -122Q656 -99 678 -56Q700 -12 700 48L700 120L707 96Q692 65 664 41Q637 17 601 3Q566 -10 526 -10Q466 -10 426 14Q387 39 368 82Q349 125 349 183L349 490Q349 502 357 511Q365 520 379 520Q392 520 400 511Q409 502 409 490L409 192Q409 122 439 84Q470 46 539 46Q582 46 618 66Q654 87 677 120Q700 154 700 192L700 490Q700 502 708 511Q717 520 730 520ZM1332 740Q1345 740 1353 731Q1362 723 1362 710L1362 30Q1362 18 1353 9Q1344 0 1332 0Q1318 0 1310 9Q1302 18 1302 30L1302 149L1319 163Q1319 135 1304 104Q1289 74 1261 48Q1234 22 1197 6Q1161 -10 1118 -10Q1052 -10 998 25Q945 60 914 120Q883 180 883 257Q883 333 914 393Q945 454 998 488Q1051 523 1117 523Q1159 523 1196 508Q1233 493 1261 467Q1290 441 1306 407Q1323 374 1323 338L1302 353L1302 710Q1302 722 1310 731Q1318 740 1332 740ZM1124 46Q1177 46 1218 73Q1259 101 1282 148Q1306 196 1306 257Q1306 317 1282 364Q1259 412 1218 439Q1177 467 1124 467Q1072 467 1030 439Q989 412 965 364Q942 317 942 257Q942 197 965 149Q989 101 1030 73Q1072 46 1124 46ZM1763 81Q1755 93 1755 104Q1756 116 1768 123Q1776 130 1786 129Q1797 128 1806 119Q1833 84 1871 62Q1910 41 1963 41Q1991 41 2018 50Q2046 60 2064 79Q2082 99 2082 129Q2082 160 2064 179Q2046 198 2017 209Q1989 220 1957 228Q1923 237 1891 248Q1859 260 1834 277Q1810 295 1795 320Q1780 345 1780 381Q1780 423 1803 455Q1826 487 1865 505Q1905 523 1955 523Q1980 523 2009 516Q2038 510 2066 495Q2094 480 2116 454Q2125 445 2125 433Q2125 422 2115 413Q2107 407 2096 407Q2086 407 2079 415Q2055 442 2022 456Q1989 470 1951 470Q1922 470 1896 460Q1871 451 1854 432Q1837 413 1837 382Q1839 353 1857 335Q1876 317 1906 305Q1937 293 1975 283Q2007 275 2036 264Q2066 253 2088 236Q2111 220 2124 195Q2138 170 2138 132Q2138 88 2113 56Q2089 24 2048 7Q2007 -10 1957 -10Q1903 -10 1852 11Q1802 32 1763 81ZM2494 515Q2557 515 2596 488Q2635 461 2653 415Q2672 369 2672 313L2672 30Q2672 18 2663 9Q2654 0 2642 0Q2628 0 2620 9Q2612 18 2612 30L2612 313Q2612 354 2599 387Q2587 420 2559 439Q2531 459 2484 459Q2442 459 2404 439Q2367 420 2344 387Q2321 354 2321 313L2321 30Q2321 18 2312 9Q2303 0 2291 0Q2277 0 2269 9Q2261 18 2261 30L2261 710Q2261 722 2269 731Q2278 740 2291 740Q2304 740 2312 731Q2321 722 2321 710L2321 386L2298 351Q2300 382 2317 411Q2335 441 2363 464Q2391 488 2425 501Q2459 515 2494 515ZM3301 256Q3301 180 3267 119Q3234 59 3177 24Q3120 -10 3048 -10Q2977 -10 2919 24Q2862 59 2828 119Q2795 180 2795 256Q2795 333 2828 393Q2862 453 2919 488Q2977 523 3048 523Q3120 523 3177 488Q3234 453 3267 393Q3301 333 3301 256ZM3241 256Q3241 317 3216 364Q3191 412 3147 439Q3104 467 3048 467Q2993 467 2949 439Q2906 412 2880 364Q2855 317 2855 256Q2855 195 2880 148Q2906 101 2949 73Q2993 46 3048 46Q3104 46 3147 73Q3191 101 3216 148Q3241 195 3241 256ZM3667 515Q3735 515 3787 481Q3840 448 3871 389Q3902 331 3902 255Q3902 179 3871 120Q3840 61 3787 27Q3734 -7 3668 -7Q3633 -7 3601 3Q3570 14 3544 32Q3518 50 3498 74Q3478 99 3466 128L3484 141L3484 -170Q3484 -182 3475 -191Q3467 -200 3454 -200Q3441 -200 3432 -191Q3424 -182 3424 -170L3424 482Q3424 495 3432 504Q3440 513 3454 513Q3467 513 3475 504Q3484 495 3484 482L3484 374L3470 382Q3480 413 3499 437Q3519 462 3545 479Q3571 497 3602 506Q3633 515 3667 515ZM3662 459Q3608 459 3567 432Q3526 406 3502 360Q3479 315 3479 255Q3479 196 3502 149Q3526 102 3567 75Q3608 49 3662 49Q3715 49 3755 75Q3796 102 3820 149Q3844 196 3844 255Q3844 314 3820 360Q3796 406 3755 432Q3715 459 3662 459ZM4269 515Q4337 515 4389 481Q4442 448 4473 389Q4504 331 4504 255Q4504 179 4473 120Q4442 61 4389 27Q4336 -7 4270 -7Q4235 -7 4203 3Q4172 14 4146 32Q4120 50 4100 74Q4080 99 4068 128L4086 141L4086 -170Q4086 -182 4077 -191Q4069 -200 4056 -200Q4043 -200 4034 -191Q4026 -182 4026 -170L4026 482Q4026 495 4034 504Q4042 513 4056 513Q4069 513 4077 504Q4086 495 4086 482L4086 374L4072 382Q4082 413 4101 437Q4121 462 4147 479Q4173 497 4204 506Q4235 515 4269 515ZM4264 459Q4210 459 4169 432Q4128 406 4104 360Q4081 315 4081 255Q4081 196 4104 149Q4128 102 4169 75Q4210 49 4264 49Q4317 49 4357 75Q4398 102 4422 149Q4446 196 4446 255Q4446 314 4422 360Q4398 406 4357 432Q4317 459 4264 459ZM4855 -10Q4778 -10 4719 23Q4660 56 4627 115Q4594 174 4594 253Q4594 338 4627 398Q4661 458 4714 490Q4768 523 4828 523Q4872 523 4913 507Q4955 492 4987 461Q5019 431 5039 387Q5059 343 5060 285Q5060 273 5051 264Q5042 256 5030 256L4629 256L4617 310L5011 310L4998 298L4998 318Q4993 365 4967 398Q4941 431 4904 448Q4868 465 4828 465Q4798 465 4766 453Q4735 441 4709 415Q4684 390 4668 350Q4652 311 4652 257Q4652 198 4676 150Q4700 102 4745 74Q4790 46 4854 46Q4888 46 4916 56Q4944 66 4965 82Q4987 99 5001 117Q5012 126 5022 126Q5033 126 5040 118Q5048 110 5048 100Q5048 88 5038 79Q5008 43 4960 16Q4912 -10 4855 -10ZM5214 0Q5200 0 5192 9Q5184 18 5184 30L5184 478Q5184 490 5192 499Q5201 508 5214 508Q5227 508 5235 499Q5244 490 5244 478L5244 328L5229 325Q5232 360 5246 394Q5261 429 5286 458Q5311 487 5345 505Q5380 523 5423 523Q5441 523 5458 515Q5475 508 5475 491Q5475 476 5467 468Q5459 460 5448 460Q5439 460 5428 465Q5418 470 5401 470Q5373 470 5345 453Q5317 437 5294 409Q5271 381 5257 346Q5244 312 5244 277L5244 30Q5244 18 5235 9Q5226 0 5214 0ZM5540 81Q5532 93 5532 104Q5533 116 5545 123Q5553 130 5563 129Q5574 128 5583 119Q5610 84 5648 62Q5687 41 5740 41Q5768 41 5795 50Q5823 60 5841 79Q5859 99 5859 129Q5859 160 5841 179Q5823 198 5794 209Q5766 220 5734 228Q5700 237 5668 248Q5636 260 5611 277Q5587 295 5572 320Q5557 345 5557 381Q5557 423 5580 455Q5603 487 5642 505Q5682 523 5732 523Q5757 523 5786 516Q5815 510 5843 495Q5871 480 5893 454Q5902 445 5902 433Q5902 422 5892 413Q5884 407 5873 407Q5863 407 5856 415Q5832 442 5799 456Q5766 470 5728 470Q5699 470 5673 460Q5648 451 5631 432Q5614 413 5614 382Q5616 353 5634 335Q5653 317 5683 305Q5714 293 5752 283Q5784 275 5813 264Q5843 253 5865 236Q5888 220 5901 195Q5915 170 5915 132Q5915 88 5890 56Q5866 24 5825 7Q5784 -10 5734 -10Q5680 -10 5629 11Q5579 32 5540 81Z" fill="#f9d1c8" style=""></path></g></g><g transform="matrix(2,0,0,2,1838.5921,-1085.5187)"><g transform="matrix(1.024,0,0,-1.024,0,0)"><path d="M260 -10Q197 -10 147 25Q97 60 71 117Q66 126 66 133Q66 146 76 153Q86 161 96 161Q106 161 112 156Q119 151 124 144Q143 102 179 76Q215 50 260 50Q306 50 341 69Q376 89 395 124Q415 159 415 204L415 670Q415 682 424 691Q434 700 447 700Q461 700 469 691Q478 682 478 670L478 204Q478 142 450 93Q422 45 373 17Q324 -10 260 -10ZM859 -10Q783 -11 727 14Q671 39 620 89Q615 93 611 99Q608 105 608 113Q608 125 617 135Q627 145 639 145Q651 145 661 135Q700 93 749 71Q799 49 856 49Q904 49 941 64Q979 79 1001 107Q1023 135 1023 172Q1023 218 998 246Q973 275 932 293Q891 312 841 327Q800 339 763 354Q726 370 697 392Q668 415 652 448Q636 481 636 528Q636 581 664 622Q692 663 743 686Q795 710 863 710Q922 710 976 690Q1031 670 1063 631Q1078 615 1078 602Q1078 592 1068 582Q1058 572 1046 572Q1036 572 1029 579Q1012 600 986 616Q960 633 928 642Q897 651 863 651Q816 651 778 636Q741 622 719 595Q698 568 698 530Q698 488 722 461Q746 434 785 416Q824 399 868 384Q911 372 950 356Q990 341 1020 318Q1051 295 1068 260Q1086 225 1086 172Q1086 121 1057 80Q1028 39 977 15Q927 -9 859 -10Z" fill="#f9d1c8" style=""></path></g></g></g></svg>