<svg version="1.1" xmlns="http://www.w3.org/2000/svg" viewBox="-421.2 -1110.2 8937.419981203486 2924.2800842285155"><desc>Created with Snap</desc><defs></defs><g><g transform="matrix(27.6604,0,0,27.6604,5881.4002,-1001.915)"><path d="M15.9,54.8c0-10.8,0-21.5,0-32.3c0-1.3,0.4-2.6,0.3-4c-0.1-0.5,0.2-0.7,0.7-0.7c1.7,0,3.5,0,5.2,0c0.5,0,0.7,0.2,0.7,0.7  c0,0.4,0,0.9,0,1.3c0,0.6,0.2,0.9,0.8,0.9c4,0,8,0,12,0c0.9,0,0.9-0.7,1-1.2c0.5-2.4,1.3-4.7,2.8-6.7c2.2-3,5.2-4.7,8.8-5.4  c4.6-0.8,8.6,0.8,12.4,3.1c3.5,2.1,6.5,4.8,9.8,7.2c1.4,1,2.9,1.9,4.4,2.7c0.3,0.1,0.6,0.3,0.9,0.3c1.5,0.2,1.7,0.1,1.6-1.4  c-0.1-1.1,0.3-1.5,1.4-1.4c1.4,0.1,2.8,0.1,4.1,0c0.8,0,1,0.2,1.1,1.1c0.4,6.8,0.2,13.6,0.2,20.4c0,16.1,0,32.1,0,48.2  c0,0.8-0.2,1.6-0.3,2.5c0,0.4-0.2,0.6-0.6,0.6c-0.3,0-0.6,0-0.8,0c-21.6,0-43.2,0-64.8,0c-1,0-1.6-0.1-1.5-1.3  c0-0.5-0.1-1.1-0.1-1.6C15.9,76.7,15.9,65.8,15.9,54.8z M31.7,44.1C33,43.7,34,43.3,35,43c0.8-0.2,1.1-0.6,1-1.4c0-2.8,0-5.6,0-8.4  c0-0.8,0.1-1.6-1.1-1.4c-0.3,0-0.5-0.3-0.7-0.6c-0.4-0.7-0.4-1.4-0.4-2.2c0.1-0.8-0.3-1-1-1c-2.9,0-5.8,0.1-8.6,0  c-1,0-1.3,0.3-1.3,1.3c0,17.2,0,34.3,0,51.5c0,1.1,0.3,1.3,1.3,1.3c17.1,0,34.2,0,51.3,0c1,0,1.3-0.2,1.3-1.3c0-17.1,0-34.2,0-51.3  c0-1.1-0.3-1.4-1.4-1.4c-10,0-20,0-29.9,0c-1,0-1.4,0.2-1.4,1.3c0,1,0,2.4-1.7,2.5c-0.5,0-0.4,0.5-0.4,0.9c0,1.9,0,3.9,0,5.8  c0,1.9,0,1.9,1.8,1.3c0.6-0.2,1.1-0.5,1.7,0c0.6,0.5,1.1,1,1.7,1.4c0.7,0.5,0.4,0.8-0.2,1c-0.4,0.1-0.8,0.2-1.2,0.4  c-1.3,0.6-2.8,0.8-4.2,1.6c0.2,0.2,0.3,0.3,0.5,0.3c2.4,0.9,4.8,1.8,7.1,2.8c0.9,0.4,1.8,0.2,2.6-0.2c1.3-0.5,2.6-1,4-1.5  c1-0.4,2-0.8,3.3-1.2c-2.5-0.9-4.7-1.8-7-2.7c0.7-0.6,1.3-1.1,1.9-1.6c0.8-0.7,1.5-0.8,2.5-0.4c2.1,0.8,4.2,1.5,6.3,2.4  c1.8,0.7,3.8,1.2,5.6,2.2c-0.2,0.1-0.4,0.2-0.5,0.3c-5.7,2.2-11.4,4.3-17.1,6.5c-0.5,0.2-0.8,0.1-1.2-0.1c-2.1-0.8-4.2-1.7-6.4-2.5  C39.5,47.2,35.7,45.7,31.7,44.1z M64,20.7c0-0.1,0.1-0.2,0.1-0.2c-0.7-0.6-1.4-1.2-2.2-1.7c-2.7-2-5.3-4.1-8.6-5  c-5.4-1.4-9.5,0.6-10.7,6.1c-0.2,0.8,0.1,0.9,0.7,0.9C50.2,20.7,57.1,20.7,64,20.7z M60.4,25.2c1.6,0,3.2,0,4.7,0c3.5,0,7,0,10.5,0  c0.7,0,1.1-0.1,1.1-0.9c0-0.9-0.6-0.7-1.2-0.7c-10.1,0-20.3,0-30.4,0c-0.6,0-1.2,0-1.1,0.9c0,1,0.7,0.8,1.2,0.8  C50.4,25.2,55.4,25.2,60.4,25.2z M28.3,25.4c1.6,0,3.2,0,4.7,0c0.9,0,0.9-0.5,0.9-1.1c0-0.6-0.1-1-0.9-1c-3.1,0-6.3,0-9.4,0  c-0.8,0-1,0.3-1,1.1c0,0.7,0.2,1.1,1,1.1C25.2,25.4,26.7,25.4,28.3,25.4z M37,37c0,1.5,0,3,0,4.5c0,0.6,0.1,0.8,0.7,0.6  c0.7-0.2,0.9-0.5,0.9-1.3c0-2.6,0-5.3,0-7.9c0-0.6,0.1-1.1-0.8-1.1c-0.8,0-0.9,0.4-0.9,1C37,34.2,37,35.6,37,37z M39.6,36.5  c0,1.2,0,2.4,0,3.7c0,0.4-0.3,1.1,0.4,1.1c0.6,0,1.2-0.2,1.2-1.1c0-2.5,0-4.9,0-7.4c0-0.6-0.2-0.8-0.8-0.9c-0.7,0-0.9,0.2-0.9,0.9  C39.6,33.9,39.6,35.2,39.6,36.5z" fill="#4a274f" style=""></path><path d="M49.1,63.2c0,3.1,0,6.2,0,9.3c0,0.8-0.2,0.9-0.9,0.6C43.1,70.7,38,68.3,32.9,66c-0.8-0.4-1.1-0.8-1.1-1.7c0-5.7,0-11.4,0-17  c0-1.4,0.1-1.4,1.3-0.9c5,2,10,4.1,15.1,6.1c0.7,0.3,0.9,0.7,0.9,1.4C49.1,57,49.1,60.1,49.1,63.2z M45.8,68.1c0-4.2,0-8.3,0-12.4  c0-0.4-0.2-0.6-0.6-0.8c-3-1.2-6-2.4-8.9-3.7c-0.7-0.3-0.9-0.1-0.9,0.7c0,3.5,0,7.1,0,10.6c0,0.6,0.2,1,0.8,1.3  c1.6,0.7,3.1,1.5,4.7,2.2C42.5,66.6,43.9,67.7,45.8,68.1z" fill="#4a274f" style=""></path><path d="M51.5,63c0-3,0-6.1,0-9.1c0-0.7,0.2-1,0.8-1.2c5.1-1.9,10.2-3.8,15.2-5.8c0.8-0.3,1-0.2,1,0.7c0,5.8,0,11.7,0,17.5  c0,0.8-0.4,1.1-1,1.4c-3.6,1.5-7.2,3.1-10.7,4.6c-1.4,0.6-2.8,1.2-4.2,1.8c-0.8,0.4-1.1,0.2-1.1-0.7C51.5,69.2,51.5,66.1,51.5,63z   M54.8,61.7c0,1.9,0,3.8,0,5.7c0,0.6,0,1,0.8,0.6c3-1.3,6-2.6,9-3.9c0.6-0.2,0.6-0.6,0.6-1.1c0-3.5,0-7,0-10.5  c0-0.9-0.3-1.1-1.1-0.8c-2.9,1.1-5.8,2.2-8.7,3.3c-0.5,0.2-0.7,0.5-0.7,1.1C54.8,58,54.8,59.8,54.8,61.7z" fill="#4a274f" style=""></path><path d="M50.2,77.7c-7,0-14,0-21,0c-0.4,0-0.9,0.2-1.1-0.3c-0.2-0.6-0.2-1.2,0-1.9c0-0.2,0.3-0.2,0.5-0.2c0.2,0,0.4,0,0.6,0  c14,0,28.1,0,42.1,0c0.9,0,1.3,0.1,1.3,1.1c0,1-0.3,1.3-1.3,1.3C64.3,77.7,57.3,77.7,50.2,77.7z" fill="#4a274f" style=""></path><desc>Created with Snap</desc><defs></defs></g><g><g transform="matrix(1,0,0,-1,0,0)"><path d="M173 -200Q173 -367 85 -367Q76 -367 62 -367Q49 -366 22 -363Q-4 -359 -31 -350Q-96 -328 -114 -286Q-114 -283 -109 -272Q-100 -252 -100 -249Q-67 -274 -29 -296Q9 -318 52 -318Q81 -318 98 -276Q114 -240 114 -204Q114 -107 100 48Q80 281 80 344Q80 408 82 448Q79 472 104 484Q123 493 146 493Q137 431 137 395Q137 359 137 320Q138 282 143 208Q149 134 156 60Q173 -101 173 -200ZM110 707Q126 696 126 672Q126 648 108 643Q107 643 100 643Q94 643 79 656Q79 688 94 702Q100 707 110 707ZM724 434L420 -377Q399 -424 370 -424Q356 -424 349 -412Q343 -399 349 -382Q371 -289 412 -170Q454 -51 468 -10Q433 25 358 130Q204 346 204 367Q204 368 205 369L243 407Q322 334 449 159Q481 115 500 85Q521 127 533 157Q545 188 552 206Q560 225 573 256Q607 339 667 467Q676 471 686 471Q711 471 722 458Q726 453 726 446Q726 440 724 434ZM1244 803Q1244 707 1238 615Q1233 524 1228 436Q1224 349 1224 250Q1224 152 1238 42Q1238 19 1229 9Q1221 -1 1201 -1Q1154 -1 1154 77L1154 110Q1012 4 914 4Q875 4 834 23Q794 42 758 100Q753 124 753 149Q753 174 762 209Q772 245 801 283Q831 321 873 350Q965 412 1072 412Q1118 412 1160 398Q1160 416 1162 461Q1165 506 1168 556Q1174 686 1176 709Q1178 733 1181 749Q1185 766 1192 778Q1207 803 1244 803ZM826 157Q826 78 883 78Q892 78 903 80Q944 80 1004 104Q1118 149 1143 182L1143 315Q1143 350 1086 350Q1079 351 1067 351Q1056 351 1032 346Q1008 341 978 328Q948 315 919 296Q858 255 835 200Q826 179 826 157ZM2048 258Q2158 258 2158 202Q2158 160 2097 104Q2006 21 1852 -29Q1845 -29 1836 -15Q1828 -1 1823 6Q1819 14 1817 16Q1932 54 2006 108Q2056 144 2056 167Q2056 190 1997 190Q1938 190 1824 162Q1772 164 1734 199Q1701 230 1701 261Q1701 293 1719 319Q1737 346 1767 369Q1797 392 1837 411Q1935 458 2040 458Q2071 458 2100 452Q2124 452 2128 431Q2132 410 2132 362Q2073 389 1999 389Q1907 389 1847 352Q1785 316 1783 258Q1783 230 1824 230L1897 238Q1991 258 2048 258ZM2690 14Q2681 -3 2643 -3Q2606 -3 2606 24Q2606 142 2601 186Q2592 283 2563 290Q2491 304 2445 304Q2400 304 2370 276Q2341 249 2325 185Q2310 122 2303 7L2226 7Q2228 64 2228 113Q2228 162 2226 229Q2224 297 2221 377Q2216 469 2216 532Q2216 596 2224 649Q2234 668 2253 668Q2276 668 2289 651Q2302 635 2303 622L2298 457Q2298 364 2307 318Q2397 378 2493 378Q2524 378 2559 373Q2634 334 2657 290Q2668 267 2671 241Q2674 215 2675 182Q2681 68 2690 14ZM2752 190Q2752 308 2854 380Q2935 437 3049 449Q3055 449 3077 449Q3099 449 3136 436Q3218 408 3248 337Q3260 309 3260 289Q3260 270 3259 262Q3259 137 3164 65Q3076 -1 2944 -1Q2849 -1 2800 43Q2752 87 2752 190ZM2821 166Q2821 104 2854 82Q2879 66 2938 66Q2997 66 3042 75Q3087 84 3122 106Q3197 154 3197 255Q3197 315 3165 353Q3130 394 3073 394Q3034 387 2994 379Q2955 371 2920 348Q2844 299 2821 166ZM3399 401Q3535 448 3634 448Q3760 448 3802 382Q3821 351 3821 315Q3821 265 3789 212Q3758 159 3706 116Q3585 17 3412 -7Q3412 -18 3412 -43Q3413 -67 3413 -97Q3414 -127 3414 -161Q3415 -195 3416 -226Q3419 -303 3420 -314Q3422 -325 3422 -332Q3422 -357 3406 -370Q3390 -382 3364 -382Q3359 -382 3354 -382L3338 422Q3347 435 3362 434Q3377 433 3386 426Q3395 419 3399 401ZM3691 366Q3658 383 3620 383Q3583 383 3546 376Q3462 360 3422 305Q3404 279 3404 241Q3404 237 3404 233L3404 60Q3610 106 3696 188Q3746 235 3746 285Q3746 338 3691 366ZM3969 401Q4105 448 4204 448Q4330 448 4372 382Q4391 351 4391 315Q4391 265 4359 212Q4328 159 4276 116Q4155 17 3982 -7Q3982 -18 3982 -43Q3983 -67 3983 -97Q3984 -127 3984 -161Q3985 -195 3986 -226Q3989 -303 3990 -314Q3992 -325 3992 -332Q3992 -357 3976 -370Q3960 -382 3934 -382Q3929 -382 3924 -382L3908 422Q3917 435 3932 434Q3947 433 3956 426Q3965 419 3969 401ZM4261 366Q4228 383 4190 383Q4153 383 4116 376Q4032 360 3992 305Q3974 279 3974 241Q3974 237 3974 233L3974 60Q4180 106 4266 188Q4316 235 4316 285Q4316 338 4261 366ZM4647 70Q4735 70 4912 150Q4923 150 4930 142Q4937 135 4937 125Q4897 57 4784 19Q4671 -19 4573 6Q4462 35 4438 131Q4436 150 4436 182Q4436 214 4452 266Q4469 319 4509 366Q4549 413 4603 440Q4657 467 4718 467Q4776 467 4848 427Q4882 408 4902 384Q4922 360 4922 335Q4922 328 4921 321Q4919 260 4862 244Q4837 237 4804 237L4660 243Q4588 243 4550 212Q4528 195 4519 161Q4544 70 4647 70ZM4825 379Q4803 395 4779 402Q4755 409 4739 409Q4723 409 4687 398Q4651 388 4623 375Q4554 343 4554 308Q4634 301 4674 301Q4785 301 4824 320Q4848 330 4848 345Q4848 363 4825 379ZM5488 365Q5446 395 5380 395Q5318 395 5265 372Q5165 330 5128 264Q5112 234 5112 200Q5112 194 5112 166Q5112 139 5122 92Q5132 46 5132 -2Q5111 -3 5098 -7Q5085 -11 5076 -11Q5067 -11 5060 -3Q5054 5 5046 28Q5045 34 5042 62Q5039 90 5034 130Q5030 170 5024 217Q5019 265 5014 311Q5003 411 4997 458Q4997 482 5032 482Q5053 482 5065 464Q5077 447 5084 424Q5091 402 5093 380Q5096 358 5098 349Q5230 467 5426 467Q5448 467 5472 466Q5478 467 5487 467Q5496 467 5505 455Q5516 441 5516 421Q5516 371 5488 365ZM5904 258Q6014 258 6014 202Q6014 160 5953 104Q5862 21 5708 -29Q5701 -29 5692 -15Q5684 -1 5679 6Q5675 14 5673 16Q5788 54 5862 108Q5912 144 5912 167Q5912 190 5853 190Q5794 190 5680 162Q5628 164 5590 199Q5557 230 5557 261Q5557 293 5575 319Q5593 346 5623 369Q5653 392 5693 411Q5791 458 5896 458Q5927 458 5956 452Q5980 452 5984 431Q5988 410 5988 362Q5929 389 5855 389Q5763 389 5703 352Q5641 316 5639 258Q5639 230 5680 230L5753 238Q5847 258 5904 258Z" fill="#4a274f" style=""></path></g></g><g transform="matrix(0.75,0,0,0.75,1445.1676,1424.704)"><g transform="matrix(1.024,0,0,-1.024,0,0)"><path d="M186 -8Q117 -8 91 21Q65 50 65 114L65 571L16 571L16 704L65 704L65 859L235 859L235 704L285 704L285 571L235 571L235 160Q235 141 238 132Q241 123 254 123Q264 123 273 124Q282 125 285 125L285 5Q270 1 241 -4Q213 -8 186 -8ZM541 -8Q324 -8 324 212L325 270L500 270L501 184Q501 158 511 144Q521 131 544 131Q579 131 579 188Q579 230 562 254Q546 278 510 305L417 377Q369 414 348 453Q327 493 327 565Q327 621 356 660Q386 700 435 720Q484 740 544 740Q757 740 757 528L757 514L576 514L576 542Q576 568 567 586Q559 605 539 605Q521 605 511 594Q502 584 502 566Q502 526 533 504L641 425Q699 382 730 331Q761 281 761 204Q761 102 703 47Q645 -8 541 -8ZM815 0L815 864L995 864L995 660Q1023 740 1102 740Q1176 740 1214 693Q1252 646 1252 564L1252 0L1077 0L1077 553Q1077 577 1066 592Q1055 607 1034 607Q1016 607 1005 591Q995 576 995 554L995 0L815 0ZM1494 781L1319 781L1319 903L1494 903L1494 781ZM1494 0L1319 0L1319 732L1494 732L1494 0ZM1563 0L1563 732L1738 732L1738 651Q1751 694 1783 717Q1816 741 1864 741L1864 595Q1827 595 1782 584Q1738 574 1738 560L1738 0L1563 0ZM2058 -8Q1989 -8 1963 21Q1937 50 1937 114L1937 571L1888 571L1888 704L1937 704L1937 859L2107 859L2107 704L2157 704L2157 571L2107 571L2107 160Q2107 141 2110 132Q2113 123 2126 123Q2136 123 2145 124Q2154 125 2157 125L2157 5Q2142 1 2113 -4Q2085 -8 2058 -8ZM2729 -8Q2657 -8 2626 78L2626 0L2446 0L2446 864L2626 864L2626 697Q2668 740 2724 740Q2809 740 2846 689Q2883 639 2883 544L2883 191Q2883 101 2845 46Q2807 -8 2729 -8ZM2670 128Q2688 128 2695 139Q2703 151 2704 168Q2706 186 2706 223L2706 528Q2706 567 2699 586Q2692 605 2669 605Q2644 605 2635 586Q2626 567 2626 530L2626 223Q2626 175 2634 151Q2642 128 2670 128ZM2947 0L2947 732L3122 732L3122 651Q3135 694 3167 717Q3200 741 3248 741L3248 595Q3211 595 3166 584Q3122 574 3122 560L3122 0L2947 0ZM3424 -8Q3339 -8 3307 48Q3276 105 3276 210Q3276 296 3298 342Q3321 388 3361 409Q3401 431 3483 457L3531 473L3531 475L3531 548Q3531 577 3519 592Q3508 608 3492 608Q3478 608 3467 595Q3457 582 3457 560L3457 516L3287 516L3287 540Q3287 648 3337 694Q3388 740 3502 740Q3593 740 3650 692Q3707 645 3707 558L3707 0L3533 0L3533 87Q3520 42 3491 17Q3463 -8 3424 -8ZM3493 128Q3513 128 3521 144Q3530 161 3530 185L3530 389Q3491 374 3472 351Q3454 328 3454 287L3454 193Q3454 128 3493 128ZM3774 0L3774 732L3949 732L3949 639Q3960 684 3987 712Q4014 740 4059 740Q4133 740 4168 694Q4204 649 4204 565L4204 0L4032 0L4032 547Q4032 571 4022 588Q4013 605 3993 605Q3966 605 3957 580Q3949 556 3949 515L3949 0L3774 0ZM4417 -8Q4353 -8 4320 22Q4288 53 4277 103Q4267 154 4267 233L4269 563Q4269 641 4308 690Q4348 740 4420 740Q4491 740 4526 693L4526 864L4701 864L4701 0L4526 0L4526 78Q4511 35 4485 13Q4460 -8 4417 -8ZM4484 129Q4510 129 4518 154Q4526 180 4526 223L4526 254L4526 529Q4526 561 4517 583Q4508 605 4485 605Q4459 605 4450 584Q4442 564 4442 529L4442 221Q4442 129 4484 129ZM4945 781L4770 781L4770 903L4945 903L4945 781ZM4945 0L4770 0L4770 732L4945 732L4945 0ZM5014 0L5014 732L5189 732L5189 639Q5200 684 5227 712Q5254 740 5299 740Q5373 740 5408 694Q5444 649 5444 565L5444 0L5272 0L5272 547Q5272 571 5262 588Q5253 605 5233 605Q5206 605 5197 580Q5189 556 5189 515L5189 0L5014 0ZM5710 -107Q5632 -107 5587 -95Q5543 -82 5500 -47L5560 54Q5624 16 5687 16Q5728 16 5749 42Q5770 68 5770 113L5770 153Q5749 78 5659 78Q5584 78 5548 129Q5513 180 5513 265L5513 540Q5513 637 5545 688Q5578 740 5659 740Q5706 740 5733 716Q5761 693 5770 650L5770 732L5949 732L5949 124Q5949 1 5892 -53Q5835 -107 5710 -107ZM5729 210Q5770 210 5770 284L5770 545Q5770 567 5758 587Q5746 607 5728 607Q5705 607 5697 590Q5689 574 5689 545L5689 284Q5689 251 5697 230Q5705 210 5729 210Z" fill="#4a274f" style=""></path></g></g></g></svg>